HIERARCHY
ROOT mixamorig:Hips
{
	OFFSET 0.000000 104.274902 0.000000
	CHANNELS 6 Xposition Yposition Zposition Xrotation Yrotation Zrotation
	JOINT mixamorig:Spine
	{
		OFFSET 0.000000 10.181549 0.131524
		CHANNELS 6 Xposition Yposition Zposition Xrotation Yrotation Zrotation
		JOINT mixamorig:Spine1
		{
			OFFSET 0.000000 9.893990 -1.470706
			CHANNELS 3 Xrotation Yrotation Zrotation
			JOINT mixamorig:Spine2
			{
				OFFSET 0.000000 9.220787 -1.370637
				CHANNELS 3 Xrotation Yrotation Zrotation
				JOINT mixamorig:Neck
				{
					OFFSET 0.000000 16.740372 -2.049022
					CHANNELS 6 Xposition Yposition Zposition Xrotation Yrotation Zrotation
					JOINT mixamorig:Head
					{
						OFFSET 0.000000 9.617859 1.684976
						CHANNELS 6 Xposition Yposition Zposition Xrotation Yrotation Zrotation
						JOINT mixamorig:HeadTop_End
						{
							OFFSET 0.000000 22.037384 7.501072
							CHANNELS 6 Xposition Yposition Zposition Xrotation Yrotation Zrotation
							End Site
							{
								OFFSET 0.000000 23.106567 -2.828246
							}
						}
					}
				}
				JOINT mixamorig:RightShoulder
				{
					OFFSET -4.570000 11.014877 -2.160840
					CHANNELS 6 Xposition Yposition Zposition Xrotation Yrotation Zrotation
					JOINT mixamorig:RightArm
					{
						OFFSET -10.592867 -0.524796 -2.232105
						CHANNELS 3 Xrotation Yrotation Zrotation
						JOINT mixamorig:RightForeArm
						{
							OFFSET -27.841497 0.000000 -0.000002
							CHANNELS 3 Xrotation Yrotation Zrotation
							JOINT mixamorig:RightHand
							{
								OFFSET -28.328812 0.000000 -0.000001
								CHANNELS 3 Xrotation Yrotation Zrotation
								JOINT mixamorig:RightHandThumb1
								{
									OFFSET -2.464798 -1.573990 2.681911
									CHANNELS 6 Xposition Yposition Zposition Xrotation Yrotation Zrotation
									JOINT mixamorig:RightHandThumb2
									{
										OFFSET -3.244781 -1.873383 1.873376
										CHANNELS 3 Xrotation Yrotation Zrotation
										JOINT mixamorig:RightHandThumb3
										{
											OFFSET -2.646263 -1.527817 1.527818
											CHANNELS 6 Xposition Yposition Zposition Xrotation Yrotation Zrotation
											JOINT mixamorig:RightHandThumb4
											{
												OFFSET -1.994591 -1.151581 1.151575
												CHANNELS 6 Xposition Yposition Zposition Xrotation Yrotation Zrotation
												End Site
												{
													OFFSET -1.860176 -1.142715 1.365483
												}
											}
										}
									}
								}
								JOINT mixamorig:RightHandIndex1
								{
									OFFSET -9.108299 -0.517883 2.259803
									CHANNELS 6 Xposition Yposition Zposition Xrotation Yrotation Zrotation
									JOINT mixamorig:RightHandIndex2
									{
										OFFSET -3.699997 0.000000 0.000000
										CHANNELS 3 Xrotation Yrotation Zrotation
										JOINT mixamorig:RightHandIndex3
										{
											OFFSET -2.850006 0.000000 0.000000
											CHANNELS 3 Xrotation Yrotation Zrotation
											JOINT mixamorig:RightHandIndex4
											{
												OFFSET -2.772194 0.000000 0.000000
												CHANNELS 3 Xrotation Yrotation Zrotation
												End Site
												{
													OFFSET -2.772202 0.000000 -0.000484
												}
											}
										}
									}
								}
								JOINT mixamorig:RightHandMiddle1
								{
									OFFSET -9.532501 0.000000 -0.000000
									CHANNELS 6 Xposition Yposition Zposition Xrotation Yrotation Zrotation
									JOINT mixamorig:RightHandMiddle2
									{
										OFFSET -3.699997 0.000000 0.000000
										CHANNELS 3 Xrotation Yrotation Zrotation
										JOINT mixamorig:RightHandMiddle3
										{
											OFFSET -2.949997 0.000000 0.000000
											CHANNELS 3 Xrotation Yrotation Zrotation
											JOINT mixamorig:RightHandMiddle4
											{
												OFFSET -2.946594 0.000000 0.000000
												CHANNELS 3 Xrotation Yrotation Zrotation
												End Site
												{
													OFFSET -2.946602 0.000000 -0.000982
												}
											}
										}
									}
								}
								JOINT mixamorig:RightHandRing1
								{
									OFFSET -9.103600 -0.043106 -1.865100
									CHANNELS 6 Xposition Yposition Zposition Xrotation Yrotation Zrotation
									JOINT mixamorig:RightHandRing2
									{
										OFFSET -3.379303 0.000000 0.000000
										CHANNELS 3 Xrotation Yrotation Zrotation
										JOINT mixamorig:RightHandRing3
										{
											OFFSET -2.889694 0.000000 0.000000
											CHANNELS 3 Xrotation Yrotation Zrotation
											JOINT mixamorig:RightHandRing4
											{
												OFFSET -2.638802 0.000000 0.000000
												CHANNELS 3 Xrotation Yrotation Zrotation
												End Site
												{
													OFFSET -2.638802 0.000000 0.004218
												}
											}
										}
									}
								}
								JOINT mixamorig:RightHandPinky1
								{
									OFFSET -8.076698 -0.486725 -3.806299
									CHANNELS 6 Xposition Yposition Zposition Xrotation Yrotation Zrotation
									JOINT mixamorig:RightHandPinky2
									{
										OFFSET -3.600006 0.000000 0.000000
										CHANNELS 3 Xrotation Yrotation Zrotation
										JOINT mixamorig:RightHandPinky3
										{
											OFFSET -2.099998 0.000000 0.000000
											CHANNELS 3 Xrotation Yrotation Zrotation
											JOINT mixamorig:RightHandPinky4
											{
												OFFSET -2.115791 0.000000 0.000000
												CHANNELS 3 Xrotation Yrotation Zrotation
												End Site
												{
													OFFSET -2.115799 0.000000 0.000174
												}
											}
										}
									}
								}
							}
						}
					}
				}
				JOINT mixamorig:LeftShoulder
				{
					OFFSET 4.570400 11.014679 -2.160816
					CHANNELS 6 Xposition Yposition Zposition Xrotation Yrotation Zrotation
					JOINT mixamorig:LeftArm
					{
						OFFSET 10.592373 -0.524597 -2.232116
						CHANNELS 3 Xrotation Yrotation Zrotation
						JOINT mixamorig:LeftForeArm
						{
							OFFSET 27.841488 0.000000 0.000001
							CHANNELS 3 Xrotation Yrotation Zrotation
							JOINT mixamorig:LeftHand
							{
								OFFSET 28.328808 0.000000 -0.000000
								CHANNELS 3 Xrotation Yrotation Zrotation
								JOINT mixamorig:LeftHandThumb1
								{
									OFFSET 2.466103 -1.576202 2.681698
									CHANNELS 6 Xposition Yposition Zposition Xrotation Yrotation Zrotation
									JOINT mixamorig:LeftHandThumb2
									{
										OFFSET 3.243317 -1.872528 1.872530
										CHANNELS 3 Xrotation Yrotation Zrotation
										JOINT mixamorig:LeftHandThumb3
										{
											OFFSET 2.647881 -1.528763 1.528754
											CHANNELS 6 Xposition Yposition Zposition Xrotation Yrotation Zrotation
											JOINT mixamorig:LeftHandThumb4
											{
												OFFSET 1.998924 -1.154083 1.154080
												CHANNELS 6 Xposition Yposition Zposition Xrotation Yrotation Zrotation
												End Site
												{
													OFFSET 1.884041 -1.149155 1.337651
												}
											}
										}
									}
								}
								JOINT mixamorig:LeftHandIndex1
								{
									OFFSET 9.109299 -0.518005 2.259900
									CHANNELS 6 Xposition Yposition Zposition Xrotation Yrotation Zrotation
									JOINT mixamorig:LeftHandIndex2
									{
										OFFSET 3.699997 0.000000 0.000000
										CHANNELS 3 Xrotation Yrotation Zrotation
										JOINT mixamorig:LeftHandIndex3
										{
											OFFSET 2.850006 0.000000 0.000000
											CHANNELS 3 Xrotation Yrotation Zrotation
											JOINT mixamorig:LeftHandIndex4
											{
												OFFSET 2.774895 0.000000 0.000000
												CHANNELS 3 Xrotation Yrotation Zrotation
												End Site
												{
													OFFSET 2.774902 0.000000 -0.000072
												}
											}
										}
									}
								}
								JOINT mixamorig:LeftHandMiddle1
								{
									OFFSET 9.533401 0.000000 0.000000
									CHANNELS 6 Xposition Yposition Zposition Xrotation Yrotation Zrotation
									JOINT mixamorig:LeftHandMiddle2
									{
										OFFSET 3.699997 0.000000 0.000000
										CHANNELS 3 Xrotation Yrotation Zrotation
										JOINT mixamorig:LeftHandMiddle3
										{
											OFFSET 2.949997 0.000000 0.000000
											CHANNELS 3 Xrotation Yrotation Zrotation
											JOINT mixamorig:LeftHandMiddle4
											{
												OFFSET 2.952896 0.000000 0.000000
												CHANNELS 3 Xrotation Yrotation Zrotation
												End Site
												{
													OFFSET 2.952904 0.000000 0.000165
												}
											}
										}
									}
								}
								JOINT mixamorig:LeftHandRing1
								{
									OFFSET 9.104500 -0.042999 -1.865101
									CHANNELS 6 Xposition Yposition Zposition Xrotation Yrotation Zrotation
									JOINT mixamorig:LeftHandRing2
									{
										OFFSET 3.149994 0.000000 0.000000
										CHANNELS 3 Xrotation Yrotation Zrotation
										JOINT mixamorig:LeftHandRing3
										{
											OFFSET 2.950005 0.000000 0.000000
											CHANNELS 3 Xrotation Yrotation Zrotation
											JOINT mixamorig:LeftHandRing4
											{
												OFFSET 2.644302 0.000000 0.000000
												CHANNELS 3 Xrotation Yrotation Zrotation
												End Site
												{
													OFFSET 2.644302 0.000000 0.000083
												}
											}
										}
									}
								}
								JOINT mixamorig:LeftHandPinky1
								{
									OFFSET 8.077805 -0.486893 -3.806302
									CHANNELS 6 Xposition Yposition Zposition Xrotation Yrotation Zrotation
									JOINT mixamorig:LeftHandPinky2
									{
										OFFSET 3.600006 0.000000 0.000000
										CHANNELS 3 Xrotation Yrotation Zrotation
										JOINT mixamorig:LeftHandPinky3
										{
											OFFSET 2.099998 0.000000 0.000000
											CHANNELS 3 Xrotation Yrotation Zrotation
											JOINT mixamorig:LeftHandPinky4
											{
												OFFSET 2.125496 0.000000 0.000000
												CHANNELS 3 Xrotation Yrotation Zrotation
												End Site
												{
													OFFSET 2.125504 0.000000 -0.001254
												}
											}
										}
									}
								}
							}
						}
					}
				}
			}
		}
	}
	JOINT mixamorig:RightUpLeg
	{
		OFFSET -8.207800 -6.751701 -1.599544
		CHANNELS 6 Xposition Yposition Zposition Xrotation Yrotation Zrotation
		JOINT mixamorig:RightLeg
		{
			OFFSET 0.000004 -44.370152 0.345934
			CHANNELS 3 Xrotation Yrotation Zrotation
			JOINT mixamorig:RightFoot
			{
				OFFSET 0.000004 -44.423664 -3.043535
				CHANNELS 3 Xrotation Yrotation Zrotation
				JOINT mixamorig:RightToeBase
				{
					OFFSET 0.000001 -8.728691 10.710592
					CHANNELS 3 Xrotation Yrotation Zrotation
					JOINT mixamorig:RightToe_End
					{
						OFFSET 0.000000 -0.000665 9.278101
						CHANNELS 3 Xrotation Yrotation Zrotation
						End Site
						{
							OFFSET 0.000000 -0.000665 9.278103
						}
					}
				}
			}
		}
	}
	JOINT mixamorig:LeftUpLeg
	{
		OFFSET 8.207800 -6.751701 -1.599544
		CHANNELS 6 Xposition Yposition Zposition Xrotation Yrotation Zrotation
		JOINT mixamorig:LeftLeg
		{
			OFFSET 0.000004 -44.370037 0.346940
			CHANNELS 3 Xrotation Yrotation Zrotation
			JOINT mixamorig:LeftFoot
			{
				OFFSET 0.000004 -44.423611 -3.044388
				CHANNELS 3 Xrotation Yrotation Zrotation
				JOINT mixamorig:LeftToeBase
				{
					OFFSET 0.000001 -8.728690 10.710592
					CHANNELS 3 Xrotation Yrotation Zrotation
					JOINT mixamorig:LeftToe_End
					{
						OFFSET 0.000000 -0.000680 9.278101
						CHANNELS 3 Xrotation Yrotation Zrotation
						End Site
						{
							OFFSET 0.000000 -0.000680 9.278101
						}
					}
				}
			}
		}
	}
}
MOTION
Frames: 4
Frame Time: 0.016667
0.029891 129.543243 1.515658 -1.012474 1.685924 0.269912 -0.000000 10.181546 0.131525 -2.805050 -0.147286 0.044733 -5.611675 -0.102272 -0.620862 -5.611682 -0.102272 -0.620862 -0.000000 16.740341 -2.049005 -27.780234 0.884573 -2.478852 -0.000001 9.617832 1.684978 -5.939956 -1.809257 2.604352 0.000000 22.037384 7.501090 -0.000003 0.000000 -0.000000 -4.570005 11.014865 -2.160837 6.749405 -6.076750 -34.071944 -60.682379 36.402255 4.041665 -30.174109 20.229863 -6.213911 12.932801 8.988679 7.267597 -2.464793 -1.573980 2.681908 -17.327382 6.468825 -26.575896 3.045366 -20.333159 1.155743 -2.646255 -1.527837 1.527811 -0.000001 -0.000005 -0.000003 -1.994591 -1.151568 1.151571 -0.000003 0.000000 -0.000000 -9.108320 -0.517886 2.259808 -8.189487 4.700905 83.344359 -5.502041 0.854550 81.248891 0.000001 -0.000000 -0.000001 0.000001 -0.000000 -0.000001 -9.532486 0.000002 0.000001 -13.105752 1.845249 86.654965 -5.617192 1.089144 83.764579 -0.000001 -0.000002 0.000000 0.000001 0.000000 -0.000000 -9.103610 -0.043111 -1.865098 -13.657581 -7.092606 77.657844 -0.194332 7.087295 77.421287 -0.000000 0.000001 0.000001 0.000001 0.000001 0.000001 -8.076707 -0.486714 -3.806300 -17.941891 -11.668104 76.734915 1.092344 11.886553 73.232824 -0.000000 0.000001 0.000001 -0.000002 0.000000 0.000003 4.570411 11.014655 -2.160810 7.248374 6.365632 32.385164 -55.495506 -36.316498 6.145781 -14.960213 -23.549553 0.244995 -10.483979 -2.184910 2.838145 2.466098 -1.576200 2.681693 -23.504993 8.724805 4.055274 -11.818396 8.158950 13.633695 2.647885 -1.528783 1.528755 0.000031 0.000018 0.000004 1.998967 -1.154098 1.154083 -0.000003 0.000003 -0.000002 9.109297 -0.518013 2.259902 -0.793952 -9.944737 -73.989902 -8.742893 -2.825152 -82.562295 -0.000000 0.000000 0.000001 0.000000 -0.000000 0.000001 9.533405 -0.000003 0.000001 -7.057184 -4.106456 -72.543992 -5.071220 -4.491795 -69.918447 0.000001 0.000000 -0.000001 0.000001 -0.000000 -0.000002 9.104519 -0.042993 -1.865100 -10.868892 6.242691 -70.785594 -0.409526 -6.819356 -77.462459 -0.000001 0.000001 0.000000 -0.000001 0.000000 -0.000000 8.077800 -0.486898 -3.806299 -15.058376 6.364121 -69.029122 0.828510 -8.182795 -68.648688 0.000001 0.000000 0.000002 0.000001 0.000001 0.000001 -8.207799 -6.751705 -1.599543 -6.203041 -8.837798 3.477292 25.654674 -19.854897 -8.453387 41.855990 2.092703 5.871280 0.000010 -0.000001 0.000009 -0.000001 0.000000 -0.000001 8.207800 -6.751691 -1.599543 -21.736177 9.141967 2.025015 44.264878 14.357800 1.462171 29.418765 1.263075 5.755928 -0.000001 0.000009 0.000010 -0.000001 -0.000001 0.000000 
0.068885 129.612213 1.754310 -1.010459 1.691159 0.204488 0.000000 10.181551 0.131525 -2.826969 -0.176358 0.071118 -5.655981 -0.152849 -0.576018 -5.655982 -0.152849 -0.576018 -0.000001 16.740356 -2.049022 -27.984438 0.943872 -2.156274 -0.000000 9.617848 1.684973 -6.070086 -1.797400 2.425395 -0.000000 22.037384 7.501075 -0.000000 0.000000 0.000000 -4.570004 11.014863 -2.160843 6.761388 -6.038832 -34.037066 -60.747860 36.165746 4.354488 -30.191478 21.060677 -6.219871 13.108335 8.519783 6.227375 -2.464811 -1.573998 2.681915 -17.325770 6.466412 -26.570109 3.046401 -20.332855 1.154820 -2.646242 -1.527803 1.527814 0.000000 -0.000002 -0.000006 -1.994567 -1.151565 1.151568 0.000001 0.000003 -0.000000 -9.108319 -0.517877 2.259808 -8.186987 4.701593 83.326525 -5.504413 0.855744 81.272633 -0.000000 0.000000 -0.000000 -0.000000 0.000000 -0.000000 -9.532507 0.000009 0.000004 -13.102453 1.847615 86.638443 -5.619578 1.090581 83.790930 -0.000002 -0.000002 0.000000 -0.000001 0.000000 0.000000 -9.103612 -0.043103 -1.865096 -13.654451 -7.089462 77.645290 -0.197910 7.087136 77.450944 0.000000 0.000000 0.000000 0.000001 -0.000001 0.000002 -8.076720 -0.486723 -3.806296 -17.937810 -11.663839 76.723310 1.088628 11.886173 73.264475 -0.000003 0.000001 0.000002 0.000001 0.000001 0.000000 4.570392 11.014660 -2.160823 7.252622 6.338600 32.320991 -55.643311 -35.730229 5.811553 -15.026720 -24.797861 0.280621 -10.210416 -1.485144 4.048884 2.466101 -1.576209 2.681703 -23.504820 8.724990 4.068945 -11.805989 8.157939 13.610439 2.647901 -1.528785 1.528763 0.000027 0.000018 0.000001 1.998940 -1.154051 1.154083 0.000002 -0.000001 -0.000000 9.109276 -0.518008 2.259897 -0.792323 -9.941659 -73.963196 -8.744181 -2.826456 -82.578278 0.000000 0.000000 0.000001 0.000000 0.000000 -0.000001 9.533401 -0.000008 -0.000001 -7.051714 -4.106120 -72.520148 -5.073103 -4.492885 -69.938951 0.000000 0.000001 0.000004 -0.000001 0.000001 0.000004 9.104490 -0.043012 -1.865100 -10.863622 6.241637 -70.766757 -0.411162 -6.818517 -77.483763 -0.000000 0.000001 -0.000001 -0.000001 0.000001 -0.000002 8.077790 -0.486886 -3.806301 -15.050930 6.363566 -69.011842 0.827504 -8.182218 -68.673864 0.000003 -0.000002 0.000001 0.000003 -0.000003 -0.000003 -8.207801 -6.751709 -1.599542 -5.886009 -8.832454 3.458716 25.393349 -20.187341 -8.328067 42.826823 1.986290 5.278357 0.019658 0.005067 -0.013887 0.000000 -0.000000 -0.000001 8.207799 -6.751702 -1.599543 -21.199777 9.239026 2.044880 43.754605 14.777195 1.113831 30.380880 1.151715 5.504219 0.003766 0.009297 -0.031022 -0.000004 -0.000000 0.000001 
0.104903 129.674683 1.979358 -0.975442 1.715468 0.141119 0.000000 10.181589 0.131525 -2.866855 -0.193790 0.098051 -5.735978 -0.181146 -0.525297 -5.735972 -0.181146 -0.525297 -0.000000 16.740364 -2.049025 -28.401344 1.039029 -1.857511 -0.000000 9.617857 1.684971 -5.917103 -1.788487 2.256493 -0.000000 22.037384 7.501066 0.000004 0.000000 0.000000 -4.570005 11.014864 -2.160845 6.796310 -5.931180 -33.936939 -60.992858 36.096283 4.685030 -30.075389 21.653182 -6.252021 13.464751 8.145939 5.170036 -2.464808 -1.573972 2.681914 -17.321225 6.459611 -26.553856 3.049367 -20.331967 1.152209 -2.646251 -1.527816 1.527809 -0.000001 -0.000003 -0.000002 -1.994587 -1.151581 1.151564 0.000001 -0.000001 0.000001 -9.108303 -0.517866 2.259804 -8.179924 4.703483 83.276344 -5.511091 0.859093 81.339623 0.000000 -0.000000 -0.000000 0.000000 -0.000000 0.000000 -9.532512 0.000002 0.000000 -13.093203 1.854252 86.591772 -5.626313 1.094590 83.865195 -0.000000 -0.000002 -0.000000 0.000001 0.000000 -0.000000 -9.103604 -0.043095 -1.865100 -13.645701 -7.080580 77.609971 -0.207912 7.086551 77.534381 0.000002 0.000001 -0.000001 0.000002 0.000001 0.000001 -8.076710 -0.486701 -3.806296 -17.926306 -11.651843 76.690532 1.078167 11.885107 73.353691 -0.000002 0.000002 0.000004 0.000001 0.000000 0.000001 4.570393 11.014662 -2.160819 7.265467 6.261406 32.140169 -56.249753 -35.543498 5.111536 -14.872952 -25.670735 0.422836 -9.623620 -0.945615 5.223993 2.466097 -1.576197 2.681698 -23.504098 8.725546 4.107513 -11.771755 8.154711 13.546312 2.647880 -1.528748 1.528747 0.000025 0.000011 -0.000006 1.998933 -1.154098 1.154078 0.000000 0.000002 -0.000000 9.109290 -0.518026 2.259897 -0.787435 -9.932647 -73.884581 -8.747799 -2.830219 -82.623145 -0.000000 -0.000000 0.000001 -0.000000 -0.000000 -0.000000 9.533413 -0.000005 -0.000002 -7.035890 -4.105258 -72.449729 -5.078433 -4.495966 -69.996660 -0.000001 0.000000 -0.000002 -0.000000 0.000000 0.000001 9.104503 -0.043000 -1.865102 -10.848277 6.238516 -70.710537 -0.415794 -6.816220 -77.543561 -0.000001 -0.000000 0.000001 -0.000000 -0.000000 0.000002 8.077825 -0.486889 -3.806302 -15.029290 6.361886 -68.960342 0.824689 -8.180630 -68.744741 -0.000000 -0.000001 0.000001 -0.000001 -0.000001 0.000002 -8.207800 -6.751682 -1.599543 -5.635838 -8.898551 3.416581 25.180561 -20.523393 -8.192953 43.766705 1.900779 4.769454 0.018990 -0.012826 -0.026036 0.000002 -0.000002 0.000002 8.207801 -6.751681 -1.599549 -20.676849 9.283624 2.001882 43.177471 15.041880 0.903942 31.407573 1.051121 5.316538 0.000904 0.023847 -0.048071 -0.000003 -0.000001 -0.000000 
0.132834 129.718018 2.186318 -0.902775 1.777892 0.074391 0.000000 10.181545 0.131524 -2.927519 -0.199215 0.127577 -5.857324 -0.186938 -0.466031 -5.857316 -0.186938 -0.466031 -0.000000 16.740355 -2.049004 -28.992848 1.160027 -1.573598 0.000001 9.617836 1.684970 -5.509079 -1.773145 2.089461 0.000000 22.037369 7.501056 -0.000001 0.000000 -0.000000 -4.570006 11.014853 -2.160835 6.851306 -5.760247 -33.777437 -61.394139 36.236677 4.990843 -29.834871 21.914669 -6.272339 13.985158 7.888633 4.042526 -2.464803 -1.573974 2.681915 -17.314092 6.448906 -26.528284 3.054004 -20.330529 1.148153 -2.646264 -1.527810 1.527829 -0.000002 -0.000012 -0.000006 -1.994598 -1.151585 1.151572 0.000001 -0.000003 -0.000003 -9.108307 -0.517891 2.259800 -8.168841 4.706424 83.197455 -5.521612 0.864307 81.444842 0.000000 0.000000 0.000001 0.000001 0.000000 0.000001 -9.532523 0.000008 0.000001 -13.078648 1.864665 86.518450 -5.636929 1.100836 83.981889 -0.000001 -0.000002 -0.000000 0.000001 -0.000000 0.000000 -9.103606 -0.043103 -1.865100 -13.631908 -7.066643 77.554455 -0.223574 7.085594 77.665541 0.000001 -0.000000 -0.000002 0.000001 -0.000001 -0.000002 -8.076698 -0.486728 -3.806302 -17.908208 -11.633013 76.639094 1.061779 11.883443 73.493846 -0.000001 0.000002 0.000004 -0.000001 -0.000001 -0.000001 4.570393 11.014670 -2.160812 7.285317 6.138063 31.856108 -57.284650 -35.799747 4.066677 -14.532117 -26.012128 0.631149 -8.799730 -0.649573 6.428953 2.466094 -1.576199 2.681700 -23.502773 8.726432 4.168235 -11.718864 8.149028 13.447440 2.647892 -1.528776 1.528754 0.000031 0.000009 -0.000005 1.998940 -1.154103 1.154089 -0.000002 0.000000 -0.000000 9.109276 -0.518008 2.259906 -0.779347 -9.918002 -73.756508 -8.753450 -2.836117 -82.693373 -0.000001 0.000000 0.000001 -0.000001 -0.000000 0.000001 9.533390 -0.000009 0.000006 -7.010459 -4.103851 -72.334654 -5.086774 -4.500765 -70.087242 0.000000 0.000000 0.000001 -0.000000 0.000000 -0.000000 9.104470 -0.043004 -1.865097 -10.823636 6.233418 -70.618139 -0.423027 -6.812481 -77.637490 -0.000000 -0.000001 -0.000001 -0.000000 0.000000 -0.000001 8.077771 -0.486904 -3.806297 -14.994492 6.359124 -68.875348 0.820286 -8.178122 -68.856278 -0.000001 -0.000001 0.000001 -0.000000 -0.000000 0.000001 -8.207801 -6.751730 -1.599543 -5.520186 -9.029963 3.361521 25.114368 -20.917417 -8.069382 44.602232 1.833263 4.360741 0.008809 -0.014200 -0.016280 -0.000001 -0.000002 0.000000 8.207801 -6.751724 -1.599544 -20.267675 9.273425 1.973735 42.691800 15.172179 0.795089 32.444037 0.952857 5.152065 -0.003280 0.037123 -0.047700 -0.000004 0.000001 -0.000001 
